<svg width="180" height="207" viewBox="0 0 180 207" fill="none" xmlns="http://www.w3.org/2000/svg">
<g id="Camada_1" clip-path="url(#clip0_1_357)">
<path id="Vector" d="M134.526 96.6506C155.198 92.5095 180.005 76.5884 180.005 50.1579C180.005 34.5558 172.372 18.7916 160.608 11.1474C147.883 3.18421 121.17 0 96.9995 0H0.318605V11.7852C17.137 12.9721 24.7656 14.8649 27.0317 26.8122H26.7602H49.223C49.2021 21.2124 48.6068 18.6138 51.8233 16.5642C54.3661 14.9695 80.7764 14.0179 88.4102 14.0179C105.902 14.0179 132.192 28.1873 132.192 55.8937C132.192 71.2134 119.316 82.0889 107.724 87.8247V110.057C124.83 116.232 132.615 129.936 132.615 151.749C132.615 181.364 89.4075 192.993 71.9155 193.312C57.0917 193.589 51.6353 188.391 49.2177 172.214H26.9116C26.2119 191.44 21.8154 192.951 -0.00512695 195.22V207.005H89.042C112.575 207.005 133.247 202.545 149.465 193.63C167.594 183.44 179.995 168.627 179.995 148.884C179.995 118.632 167.912 102.71 134.516 96.6558L134.526 96.6506Z" fill="#E9D8CB"/>
<path id="Vector_2" d="M49.1444 151.587L49.2437 115.228C49.2437 112.362 51.562 110.041 54.4234 110.041H81.4132C82.1129 110.041 91.3549 110.057 92.0441 110.067V87.7985C91.7778 87.7985 82.9587 87.809 82.6872 87.809H54.4286C51.5672 87.809 49.2489 85.4875 49.2489 82.6222V47.3867H27.0367L26.9375 151.593" fill="#02503E"/>
</g>
<defs>
<clipPath id="clip0_1_357">
<rect width="180" height="207" fill="white"/>
</clipPath>
</defs>
</svg>
